<?xml version="1.0" encoding="UTF-8"?>
<svg id="Capa_1" xmlns="http://www.w3.org/2000/svg" xmlns:svg="http://www.w3.org/2000/svg" version="1.1" viewBox="0 0 512 512">
  <!-- Generator: Adobe Illustrator 29.5.1, SVG Export Plug-In . SVG Version: 2.1.0 Build 141)  -->
  <defs>
    <style>
      .st0 {
        fill: #8e8d8d;
      }
    </style>
  </defs>
  <g id="g2">
    <path id="path1" class="st0" d="M256,46.12c68.35,0,76.46.26,103.45,1.49,27.9,1.28,56.64,7.64,76.97,27.97,20.52,20.52,26.69,48.98,27.97,76.97,1.24,26.99,1.49,35.09,1.49,103.45s-.26,76.46-1.49,103.45c-1.26,27.75-7.77,56.77-27.97,76.97s-48.96,26.69-76.97,27.97c-26.99,1.24-35.09,1.49-103.45,1.49s-76.46-.26-103.45-1.49c-27.54-1.26-56.94-7.91-76.97-27.97-20.42-20.42-26.69-49.15-27.97-76.97-1.24-26.99-1.49-35.09-1.49-103.45s.26-76.46,1.49-103.45c1.26-27.65,7.83-56.83,27.97-76.97,20.48-20.48,49.05-26.69,76.97-27.97,26.99-1.24,35.09-1.49,103.45-1.49M256,0c-69.53,0-78.25.3-105.56,1.54-39.57,1.81-78.87,12.82-107.48,41.43C14.25,71.68,3.35,110.89,1.54,150.44c-1.24,27.31-1.54,36.03-1.54,105.56s.3,78.25,1.54,105.56c1.81,39.53,12.86,78.93,41.43,107.48,28.69,28.69,67.97,39.62,107.48,41.43,27.31,1.24,36.03,1.54,105.56,1.54s78.25-.3,105.56-1.54c39.55-1.81,78.89-12.84,107.48-41.43s39.62-67.93,41.43-107.48c1.24-27.31,1.54-36.03,1.54-105.56s-.3-78.25-1.54-105.56c-1.81-39.57-12.84-78.89-41.43-107.48C440.38,14.31,401,3.33,361.56,1.54c-27.31-1.24-36.03-1.54-105.56-1.54Z"/>
    <polygon id="polygon1" class="st0" points="335.8 379.05 364.82 379.05 177.57 131.42 146.4 131.42 335.8 379.05"/>
    <path id="path1-7" class="st0" d="M0,248.12v17.69c0,135.96,110.22,246.19,246.19,246.19h18.34c136.68,0,247.48-110.8,247.48-247.48h0v-23.5c-.01-133.11-107.92-241.02-241.03-241.02h-22.86C111.09,0,0,111.09,0,248.12h0ZM321.34,410.28l-82.56-107.84-94.34,107.84h-52.44l122.3-139.82L85.33,101.72h107.99l74.54,98.58,86.25-98.58h52.37l-114.37,130.69,134.55,177.86h-105.32v.02h0Z"/>
  </g>
</svg>