<?xml version="1.0" encoding="UTF-8"?>
<svg id="Layer_1" xmlns="http://www.w3.org/2000/svg" version="1.1" viewBox="0 0 512 512">
  <!-- Generator: Adobe Illustrator 29.5.1, SVG Export Plug-In . SVG Version: 2.1.0 Build 141)  -->
  <defs>
    <style>
      .st0 {
        fill: #8e8d8d;
      }
    </style>
  </defs>
  <path class="st0" d="M256,0C114.84,0,0,114.84,0,256s114.84,256,256,256,256-114.84,256-256S397.16,0,256,0ZM256,490.67c-129.39,0-234.67-105.28-234.67-234.67S126.61,21.33,256,21.33s234.67,105.28,234.67,234.67-105.28,234.67-234.67,234.67ZM160,237.12v37.76c0,51.35,42.82,93.12,95.42,93.12,36.07,0,68.69-19.5,85.08-50.88,2.77-5.23,9.19-7.23,14.4-4.52,5.23,2.73,7.25,9.17,4.52,14.4-20.1,38.46-59.97,62.34-104,62.34-64.38,0-116.76-51.35-116.76-114.45v-37.76c0-63.1,52.37-114.45,116.76-114.45,44.03,0,83.9,23.89,104,62.34,2.73,5.23.7,11.67-4.52,14.4-5.23,2.69-11.65.7-14.4-4.52-16.41-31.38-49-50.88-85.08-50.88-52.61,0-95.42,41.77-95.42,93.12h0Z"/>
</svg>