<?xml version="1.0" encoding="UTF-8"?>
<svg id="Layer_1" xmlns="http://www.w3.org/2000/svg" version="1.1" viewBox="0 0 512 512">
  <!-- Generator: Adobe Illustrator 29.5.0, SVG Export Plug-In . SVG Version: 2.1.0 Build 137)  -->
  <path d="M277.33,384c0,11.78-9.56,21.33-21.33,21.33s-21.33-9.56-21.33-21.33,9.56-21.33,21.33-21.33,21.33,9.56,21.33,21.33ZM256,320c5.89,0,10.67-4.78,10.67-10.67V117.33c0-5.89-4.78-10.67-10.67-10.67s-10.67,4.78-10.67,10.67v192c0,5.89,4.78,10.67,10.67,10.67ZM256.5-.11C115.34-.11.5,114.73.5,255.89s114.84,256,256,256,256-114.84,256-256S397.66-.11,256.5-.11ZM256.5,490.56c-129.39,0-234.67-105.28-234.67-234.67S127.11,21.22,256.5,21.22s234.67,105.28,234.67,234.67-105.28,234.67-234.67,234.67Z"/>
</svg>