<?xml version="1.0" encoding="UTF-8"?>
<svg id="Layer_1" xmlns="http://www.w3.org/2000/svg" version="1.1" viewBox="0 0 23 24">
  <!-- Generator: Adobe Illustrator 29.5.0, SVG Export Plug-In . SVG Version: 2.1.0 Build 137)  -->
  <defs>
    <style>
      .st0 {
        fill: #c00;
      }
    </style>
  </defs>
  <path d="M20.56,8.96s-.95.17-.99.19l1.33,4.78c.34,1.22.09,2.49-.67,3.49h0c-.76,1-1.92,1.58-3.18,1.58H5c-1.22,0-2.36-.55-3.12-1.5s-1.05-2.18-.79-3.35l1.77-6.64C3.71,3.68,7.05,1,10.98,1c1.19,0,2.31.29,3.35.76l.6-.83C13.72.35,12.39,0,10.98,0,6.58,0,2.84,3,1.89,7.28L.12,13.91c-.33,1.49.03,3.02.98,4.22.96,1.19,2.38,1.87,3.9,1.87h1.12c.47,2.3,2.48,4,4.88,4s4.41-1.7,4.88-4h1.16c1.58,0,3.03-.72,3.98-1.97.95-1.25,1.26-2.84.84-4.36h0l-1.3-4.7M11,23h0c-1.85,0-3.41-1.26-3.86-3h7.72c-.45,1.74-2.01,3-3.86,3Z"/>
  <path class="st0" d="M19,8c2.21,0,4-1.79,4-4S21.21,0,19,0s-4,1.79-4,4,1.79,4,4,4Z"/>
</svg>