<?xml version="1.0" encoding="UTF-8"?>
<svg id="Layer_1" xmlns="http://www.w3.org/2000/svg" version="1.1" viewBox="0 0 1025 1025">
  <!-- Generator: Adobe Illustrator 29.5.0, SVG Export Plug-In . SVG Version: 2.1.0 Build 137)  -->
  <defs>
    <style>
      .st0 {
        fill: #f2f3ee;
      }
    </style>
  </defs>
  <g id="Layer_11">
    <g>
      <path class="st0" d="M339.66,175.88h-33.83c-13.77,1-11.75,15.36.25,14.8h33.58"/>
      <path class="st0" d="M661.78,175.88h-326.61l.14,14.8h326.47"/>
      <path class="st0" d="M335.17,0h-29.15c-6.73,0-13.41,1.32-19.59,4-.27.11-.55.24-.81.35-3.37,1.51-6.56,3.44-9.52,5.67l-78.8,59.66c-4.26,3.23-7.07,8.04-7.64,13.35-.65,6.03,1.64,11.43,6.31,15.09,3.11,2.44,6.96,3.79,10.91,3.94,4.75.18,12.17.21,12.22.22l116.08.04"/>
      <path class="st0" d="M323.43,102.33l325.6.08c0-6.65.45-93.52,0-102.41h-325.6"/>
      <path class="st0" d="M643.38,102.43h58.46c.34,0,.66.03,1,.06h0c.36.03.74.07,1.11.11,43.56,6.09,44.95,64.01,3.66,72.96-1.02.18-2.08.29-3.11.34h-53.97l.14,14.8h60.2c12.23,0,24.1-4.52,32.99-12.92l78.07-94.95c1.53-2.37,3.02-4.75,4.24-7.29.08-.2.18-.38.27-.58,1.3-2.79,2.33-5.68,3.14-8.64,1.28-4.67,2.26-9.38,2.57-14.22,1.23-16.48-6.34-31.84-19.47-41.25-2.43-1.81-4.99-3.34-7.69-4.66-8.45-4.18-17.75-6.24-27.14-6.19h-134.49"/>
      <path class="st0" d="M339.16,351.76h-33.83c-13.77,1-11.75,15.36.25,14.8h33.58"/>
      <path class="st0" d="M334.67,175.88h-29.15c-6.73,0-13.41,1.32-19.59,4-.27.11-.55.24-.81.35-3.37,1.51-6.56,3.44-9.52,5.67l-78.8,59.66c-4.26,3.23-7.07,8.04-7.64,13.35-.65,6.03,1.64,11.43,6.31,15.09,3.11,2.44,6.96,3.79,10.91,3.94,4.75.18,12.17.21,12.22.22l116.08.04"/>
      <path class="st0" d="M308.05,278.3h58.46c.34,0,.66.03,1,.06h0c.36.03.74.07,1.11.11,43.56,6.09,44.95,64.01,3.66,72.96-1.02.18-2.08.29-3.11.34h-53.97l.14,14.8h60.2c12.23,0,24.1-4.52,32.99-12.92l78.07-94.95c1.53-2.37,3.02-4.75,4.24-7.29.08-.2.18-.38.27-.58,1.3-2.79,2.33-5.68,3.14-8.64,1.28-4.67,2.26-9.38,2.57-14.22,1.23-16.48-6.34-31.84-19.47-41.25-2.43-1.81-4.99-3.34-7.69-4.66-8.43-4.18-17.73-6.24-27.13-6.19h-134.49"/>
      <path class="st0" d="M339.91,528.36h-33.83c-13.77,1-11.75,15.36.25,14.8h33.58"/>
      <path class="st0" d="M662.04,528.36h-326.61l.14,14.8h326.47"/>
      <path class="st0" d="M335.42,352.48h-29.15c-6.73,0-13.41,1.32-19.59,4-.27.11-.55.24-.81.35-3.37,1.51-6.56,3.44-9.52,5.67l-78.8,59.66c-4.26,3.23-7.07,8.04-7.64,13.35-.65,6.03,1.64,11.43,6.31,15.09,3.11,2.44,6.96,3.79,10.91,3.94,4.75.18,12.17.21,12.22.22l116.08.04"/>
      <path class="st0" d="M323.69,454.82l325.6.08c0-6.65.45-93.52,0-102.41h-325.6"/>
      <path class="st0" d="M643.65,454.9h58.46c.34,0,.66.03,1,.06h0c.36.03.74.07,1.11.11,43.56,6.09,44.95,64.01,3.66,72.96-1.02.18-2.08.29-3.11.34h-53.97l.14,14.8h60.2c12.23,0,24.1-4.52,32.99-12.92l78.07-94.95c1.53-2.37,3.02-4.75,4.24-7.29.08-.2.18-.38.27-.58,1.3-2.79,2.33-5.68,3.14-8.64,1.28-4.67,2.26-9.38,2.57-14.22,1.23-16.48-6.34-31.84-19.47-41.25-2.43-1.81-4.99-3.34-7.69-4.66-8.43-4.18-17.73-6.24-27.13-6.19h-134.49"/>
      <path class="st0" d="M334.67,528.36h-29.15c-6.73,0-13.41,1.32-19.59,4-.27.11-.55.24-.81.35-3.37,1.51-6.56,3.44-9.52,5.67l-78.8,59.66c-4.26,3.23-7.07,8.04-7.64,13.35-.65,6.03,1.64,11.43,6.31,15.09,3.11,2.44,6.96,3.79,10.91,3.94,4.75.18,12.17.21,12.22.22l116.08.04"/>
      <path class="st0" d="M308.05,630.78h58.46c.34,0,.66.03,1,.06h0c.36.03.74.07,1.11.11,43.56,6.09,44.95,64.01,3.66,72.96-1.02.18-2.08.29-3.11.34h-53.97l.14,14.8h60.2c12.23,0,24.1-4.52,32.99-12.92l78.07-94.95c1.53-2.37,3.02-4.75,4.24-7.29.08-.2.18-.38.27-.58,1.3-2.79,2.33-5.68,3.14-8.64,1.28-4.67,2.26-9.38,2.57-14.22,1.23-16.48-6.34-31.84-19.47-41.25-2.43-1.81-4.99-3.34-7.69-4.66-8.43-4.18-17.73-6.24-27.13-6.19h-134.49"/>
      <path class="st0" d="M334.67,703.82h-29.15c-6.73,0-13.41,1.32-19.59,4-.27.11-.55.24-.81.35-3.37,1.51-6.56,3.44-9.52,5.67l-78.8,59.66c-4.26,3.23-7.07,8.04-7.64,13.35-.65,6.03,1.64,11.43,6.31,15.09,3.11,2.44,6.96,3.79,10.91,3.94,4.75.18,12.17.21,12.22.22l116.08.04"/>
      <path class="st0" d="M308.05,806.23h58.46c.34,0,.66.03,1,.06h0c.36.03.74.07,1.11.11,43.56,6.09,44.95,64.01,3.66,72.96-1.02.18-2.08.29-3.11.34h-119.36l-2.03,14.8h127.76c12.23,0,24.1-4.52,32.99-12.92l78.07-94.95c1.53-2.37,3.02-4.75,4.24-7.29.08-.2.18-.38.27-.58,1.3-2.79,2.33-5.68,3.14-8.64,1.28-4.67,2.26-9.38,2.57-14.22,1.23-16.48-6.34-31.84-19.47-41.25-2.43-1.81-4.99-3.34-7.69-4.66-8.43-4.18-17.73-6.24-27.13-6.19h-134.49"/>
      <path class="st0" d="M297.25,879.63h-96.93c-10.04,0-18.16,8.15-18.16,18.16v127.21l66.64-66.33,66.64,66.33v-127.21c0-10.04-8.15-18.16-18.16-18.16h-.03Z"/>
    </g>
  </g>
</svg>