<?xml version="1.0" encoding="UTF-8"?>
<svg id="Layer_1" data-name="Layer 1" xmlns="http://www.w3.org/2000/svg" viewBox="0 0 649.12 1023">
  <defs>
    <style>
      .cls-1 {
        fill: #f2f3ee;
      }
    </style>
  </defs>
  <g id="Layer_11" data-name="Layer 11">
    <g>
      <path class="cls-1" d="M157.19,175.54h-33.76c-13.74,1-11.73,15.33.25,14.77h33.51"/>
      <path class="cls-1" d="M478.68,175.54H152.71l.14,14.77h325.83"/>
      <path class="cls-1" d="M152.71,0h-29.09C116.9,0,110.23,1.32,104.07,3.99c-.27.11-.55.24-.81.35-3.36,1.51-6.55,3.43-9.5,5.66L15.11,69.54c-4.25,3.22-7.06,8.02-7.63,13.32-.65,6.02,1.64,11.41,6.3,15.06,3.1,2.44,6.95,3.78,10.89,3.93,4.74.18,12.15.21,12.2.22l115.85.04"/>
      <path class="cls-1" d="M140.99,102.13l324.96.08c0-6.64.45-93.34,0-102.21H140.99"/>
      <path class="cls-1" d="M460.32,102.23h58.35c.34,0,.66.03,1,.06h0c.36.03.74.07,1.11.11,43.47,6.08,44.86,63.89,3.65,72.82-1.02.18-2.08.29-3.1.34h-53.86l.14,14.77h60.08c12.21,0,24.05-4.51,32.93-12.89l77.92-94.76c1.53-2.37,3.01-4.74,4.23-7.28.08-.2.18-.38.27-.58,1.3-2.78,2.33-5.67,3.13-8.62,1.28-4.66,2.26-9.36,2.56-14.19,1.23-16.45-6.33-31.78-19.43-41.17-2.43-1.81-4.98-3.33-7.67-4.65C613.18,2.01,603.9-.05,594.53,0h-134.23"/>
      <path class="cls-1" d="M156.69,351.07h-33.76c-13.74,1-11.73,15.33.25,14.77h33.51"/>
      <path class="cls-1" d="M152.21,175.54h-29.09c-6.72,0-13.38,1.32-19.55,3.99-.27.11-.55.24-.81.35-3.36,1.51-6.55,3.43-9.5,5.66L14.61,245.08c-4.25,3.22-7.06,8.02-7.63,13.32-.65,6.02,1.64,11.41,6.3,15.06,3.1,2.44,6.95,3.78,10.89,3.93,4.74.18,12.15.21,12.2.22l115.85.04"/>
      <path class="cls-1" d="M125.64,277.76h58.35c.34,0,.66.03,1,.06h0c.36.03.74.07,1.11.11,43.47,6.08,44.86,63.89,3.65,72.82-1.02.18-2.08.29-3.1.34h-53.86l.14,14.77h60.08c12.21,0,24.05-4.51,32.93-12.89l77.92-94.76c1.53-2.37,3.01-4.74,4.23-7.28.08-.2.18-.38.27-.58,1.3-2.78,2.33-5.67,3.13-8.62,1.28-4.66,2.26-9.36,2.56-14.19,1.23-16.45-6.33-31.78-19.43-41.17-2.43-1.81-4.98-3.33-7.67-4.65-8.41-4.17-17.7-6.23-27.08-6.18H125.63"/>
      <path class="cls-1" d="M157.44,527.33h-33.76c-13.74,1-11.73,15.33.25,14.77h33.51"/>
      <path class="cls-1" d="M478.94,527.33H152.97l.14,14.77h325.83"/>
      <path class="cls-1" d="M152.96,351.79h-29.09c-6.72,0-13.38,1.32-19.55,3.99-.27.11-.55.24-.81.35-3.36,1.51-6.55,3.43-9.5,5.66l-78.65,59.54c-4.25,3.22-7.06,8.02-7.63,13.32-.65,6.02,1.64,11.41,6.3,15.06,3.1,2.44,6.95,3.78,10.89,3.93,4.74.18,12.15.21,12.2.22l115.85.04"/>
      <path class="cls-1" d="M141.25,453.93l324.96.08c0-6.64.45-93.34,0-102.21H141.25"/>
      <path class="cls-1" d="M460.59,454.01h58.35c.34,0,.66.03,1,.06h0c.36.03.74.07,1.11.11,43.47,6.08,44.86,63.89,3.65,72.82-1.02.18-2.08.29-3.1.34h-53.86l.14,14.77h60.08c12.21,0,24.05-4.51,32.93-12.89l77.92-94.76c1.53-2.37,3.01-4.74,4.23-7.28.08-.2.18-.38.27-.58,1.3-2.78,2.33-5.67,3.13-8.62,1.28-4.66,2.26-9.36,2.56-14.19,1.23-16.45-6.33-31.78-19.43-41.17-2.43-1.81-4.98-3.33-7.67-4.65-8.41-4.17-17.7-6.23-27.08-6.18h-134.23"/>
      <path class="cls-1" d="M152.21,527.33h-29.09c-6.72,0-13.38,1.32-19.55,3.99-.27.11-.55.24-.81.35-3.36,1.51-6.55,3.43-9.5,5.66l-78.65,59.54c-4.25,3.22-7.06,8.02-7.63,13.32-.65,6.02,1.64,11.41,6.3,15.06,3.1,2.44,6.95,3.78,10.89,3.93,4.74.18,12.15.21,12.2.22l115.85.04"/>
      <path class="cls-1" d="M125.64,629.55h58.35c.34,0,.66.03,1,.06h0c.36.03.74.07,1.11.11,43.47,6.08,44.86,63.89,3.65,72.82-1.02.18-2.08.29-3.1.34h-53.86l.14,14.77h60.08c12.21,0,24.05-4.51,32.93-12.89l77.92-94.76c1.53-2.37,3.01-4.74,4.23-7.28.08-.2.18-.38.27-.58,1.3-2.78,2.33-5.67,3.13-8.62,1.28-4.66,2.26-9.36,2.56-14.19,1.23-16.45-6.33-31.78-19.43-41.17-2.43-1.81-4.98-3.33-7.67-4.65-8.41-4.17-17.7-6.23-27.08-6.18H125.63"/>
      <path class="cls-1" d="M152.21,702.45h-29.09c-6.72,0-13.38,1.32-19.55,3.99-.27.11-.55.24-.81.35-3.36,1.51-6.55,3.43-9.5,5.66l-78.65,59.54c-4.25,3.22-7.06,8.02-7.63,13.32-.65,6.02,1.64,11.41,6.3,15.06,3.1,2.44,6.95,3.78,10.89,3.93,4.74.18,12.15.21,12.2.22l115.85.04"/>
      <path class="cls-1" d="M125.64,804.66h58.35c.34,0,.66.03,1,.06h0c.36.03.74.07,1.11.11,43.47,6.08,44.86,63.89,3.65,72.82-1.02.18-2.08.29-3.1.34h-119.13l-2.03,14.77h127.51c12.21,0,24.05-4.51,32.93-12.89l77.92-94.76c1.53-2.37,3.01-4.74,4.23-7.28.08-.2.18-.38.27-.58,1.3-2.78,2.33-5.67,3.13-8.62,1.28-4.66,2.26-9.36,2.56-14.19,1.23-16.45-6.33-31.78-19.43-41.17-2.43-1.81-4.98-3.33-7.67-4.65-8.41-4.17-17.7-6.23-27.08-6.18H125.63"/>
      <path class="cls-1" d="M114.87,877.91H18.12c-10.02,0-18.12,8.13-18.12,18.12v126.96l66.51-66.2,66.51,66.2v-126.96c0-10.02-8.13-18.12-18.12-18.12h-.03Z"/>
    </g>
  </g>
</svg>