<?xml version="1.0" encoding="UTF-8" standalone="no"?>
<!-- Generator: Adobe Illustrator 26.0.1, SVG Export Plug-In . SVG Version: 6.00 Build 0)  -->

<svg
   version="1.1"
   id="Capa_1"
   x="0px"
   y="0px"
   viewBox="0 0 24 24"
   style="enable-background:new 0 0 24 24;"
   xml:space="preserve"
   width="512"
   height="512"
   sodipodi:docname="pinterest.svg"
   inkscape:export-filename="pinterest.svg"
   inkscape:export-xdpi="96"
   inkscape:export-ydpi="96"
   inkscape:version="1.4.2 (ebf0e940, 2025-05-08)"
   xmlns:inkscape="http://www.inkscape.org/namespaces/inkscape"
   xmlns:sodipodi="http://sodipodi.sourceforge.net/DTD/sodipodi-0.dtd"
   xmlns="http://www.w3.org/2000/svg"
   xmlns:svg="http://www.w3.org/2000/svg"><defs
   id="defs1"><inkscape:path-effect
     effect="fillet_chamfer"
     id="path-effect2"
     is_visible="true"
     lpeversion="1"
     nodesatellites_param="F,0,0,1,0,0,0,1 @ F,0,0,1,0,0,0,1 @ F,0,0,1,0,0,0,1 @ F,0,0,1,0,0,0,1 @ F,0,0,1,0,0,0,1 @ F,0,0,1,0,0,0,1 @ F,0,0,1,0,0,0,1 @ F,0,0,1,0,0,0,1 @ F,0,0,1,0,0,0,1 @ F,0,0,1,0,0,0,1 @ F,0,0,1,0,0,0,1 @ F,0,0,1,0,0,0,1 @ F,0,0,1,0,0,0,1 @ F,0,0,1,0,0,0,1 @ F,0,0,1,0,0,0,1 @ F,0,0,1,0,0,0,1 @ F,0,0,1,0,0,0,1 @ F,0,0,1,0,0,0,1 @ F,0,0,1,0,0,0,1 @ F,0,0,1,0,0,0,1 @ F,0,0,1,0,0,0,1 @ F,0,0,1,0,0,0,1 @ F,0,0,1,0,0,0,1 @ F,0,0,1,0,0,0,1 @ F,0,0,1,0,0,0,1 @ F,0,0,1,0,0,0,1 @ F,0,0,1,0,0,0,1 @ F,0,0,1,0,0,0,1 @ F,0,0,1,0,0,0,1"
     radius="0"
     unit="px"
     method="auto"
     mode="F"
     chamfer_steps="1"
     flexible="false"
     use_knot_distance="true"
     apply_no_radius="true"
     apply_with_radius="true"
     only_selected="false"
     hide_knots="false" /></defs><sodipodi:namedview
   id="namedview1"
   pagecolor="#ffffff"
   bordercolor="#000000"
   borderopacity="0.25"
   inkscape:showpageshadow="2"
   inkscape:pageopacity="0.0"
   inkscape:pagecheckerboard="0"
   inkscape:deskcolor="#d1d1d1"
   inkscape:zoom="1.5488281"
   inkscape:cx="255.67718"
   inkscape:cy="263.10214"
   inkscape:window-width="2256"
   inkscape:window-height="942"
   inkscape:window-x="0"
   inkscape:window-y="25"
   inkscape:window-maximized="0"
   inkscape:current-layer="Capa_1" />
<path
   id="path1-4"
   style="display:inline"
   d="M 12 0 C 8.741 0 8.3320325 0.013960449 7.0520325 0.071960449 C 5.1970325 0.15696045 3.3549771 0.67297705 2.0139771 2.0139771 C 0.66797705 3.3599771 0.15696045 5.1980325 0.071960449 7.0520325 C 0.013960449 8.3320325 6.9388939e-18 8.741 0 12 C 0 15.259 0.013960449 15.667968 0.071960449 16.947968 C 0.15696045 18.800968 0.67497705 20.648023 2.0139771 21.986023 C 3.3589771 23.331023 5.2000325 23.84304 7.0520325 23.92804 C 8.3320325 23.98604 8.741 24 12 24 C 15.259 24 15.667968 23.98604 16.947968 23.92804 C 18.801968 23.84304 20.646023 23.326023 21.986023 21.986023 C 23.333023 20.639023 23.84304 18.801968 23.92804 16.947968 C 23.98604 15.667968 24 15.259 24 12 C 24 8.741 23.98604 8.3320325 23.92804 7.0520325 C 23.84304 5.1970325 23.326023 3.3539771 21.986023 2.0139771 C 20.643023 0.67097705 18.796968 0.15596045 16.947968 0.071960449 C 15.667968 0.013960449 15.259 6.9388939e-18 12 0 z M 12.399261 4.1037598 C 16.554261 4.1037598 19.790314 7.0647383 19.790314 11.031738 C 19.790314 15.166738 17.185242 18.492737 13.573242 18.492737 C 12.359242 18.492737 11.214322 17.860748 10.830322 17.110748 C 10.830322 17.110748 10.470442 19.066795 10.080322 19.962708 C 9.5433801 21.368113 8.8449413 22.938859 7.8717957 23.559723 C 7.8389527 23.558794 7.8069709 23.557632 7.7758484 23.556335 C 7.3856242 22.710366 7.5685819 20.739954 7.8312378 19.359741 C 8.0482378 18.421741 9.2322693 13.398743 9.2322693 13.398743 C 9.2322693 13.398743 8.8773193 12.678711 8.8773193 11.622711 C 8.8773193 9.9547112 9.844309 8.7117004 11.048309 8.7117004 C 12.074309 8.7117004 12.568268 9.4817503 12.568268 10.39975 C 12.568268 11.42575 11.917259 12.965759 11.571259 14.396759 C 11.285259 15.590759 12.17329 16.567749 13.34729 16.567749 C 15.47929 16.567749 17.117249 14.317719 17.117249 11.080719 C 17.117249 8.2087187 15.055279 6.205719 12.104279 6.205719 C 8.6902785 6.205719 6.6862793 8.7617383 6.6862793 11.406738 C 6.6862793 12.432738 7.0812493 13.538778 7.5742493 14.140778 C 7.6742493 14.257778 7.6842664 14.366741 7.6542664 14.484741 C 7.5652664 14.859741 7.3582678 15.678771 7.3182678 15.846771 C 7.2692678 16.063771 7.1402385 16.1127 6.9132385 16.0047 C 5.4132385 15.3037 4.4752808 13.12275 4.4752808 11.35675 C 4.4752808 7.5767507 7.2182613 4.1037598 12.399261 4.1037598 z " /><g
   id="g1">
	
</g>















</svg>
