<?xml version="1.0" encoding="UTF-8"?>
<svg id="Capa_1" xmlns="http://www.w3.org/2000/svg" xmlns:svg="http://www.w3.org/2000/svg" version="1.1" viewBox="0 0 512 512">
  <!-- Generator: Adobe Illustrator 29.5.1, SVG Export Plug-In . SVG Version: 2.1.0 Build 141)  -->
  <path d="M510.46,150.44c-1.81-39.57-12.84-78.89-41.43-107.48S401,3.33,361.56,1.54c-27.31-1.24-36.03-1.54-105.56-1.54s-78.25.3-105.56,1.54c-39.57,1.81-78.87,12.82-107.48,41.43C14.25,71.68,3.35,110.89,1.54,150.44c-1.24,27.31-1.54,36.03-1.54,105.56s.3,78.25,1.54,105.56c1.81,39.53,12.86,78.93,41.43,107.48,28.69,28.69,67.97,39.62,107.48,41.43,27.31,1.24,36.03,1.54,105.56,1.54s78.25-.3,105.56-1.54c39.55-1.81,78.89-12.84,107.48-41.43s39.62-67.93,41.43-107.48c1.24-27.31,1.54-36.03,1.54-105.56s-.3-78.25-1.54-105.56h-.02ZM412.27,224.14c-31.94,0-61.56-10.21-85.72-27.57v125.22c0,62.54-50.88,113.4-113.4,113.4-24.16,0-46.58-7.62-64.99-20.55-29.24-20.53-48.41-54.49-48.41-92.86,0-62.54,50.88-113.42,113.42-113.42,5.2,0,10.27.43,15.28,1.11v62.9c-4.84-1.51-9.95-2.39-15.28-2.39-28.55,0-51.79,23.24-51.79,51.8,0,19.89,11.29,37.17,27.78,45.85,7.18,3.78,15.35,5.94,24.03,5.94,27.9,0,50.65-22.19,51.7-49.85l.04-246.92h61.61c0,5.35.52,10.56,1.45,15.64,4.35,23.48,18.28,43.62,37.59,56.21,13.44,8.77,29.48,13.89,46.68,13.89v61.6h.01Z"/>
</svg>