<?xml version="1.0" encoding="UTF-8"?>
<svg id="Capa_1" xmlns="http://www.w3.org/2000/svg" xmlns:svg="http://www.w3.org/2000/svg" version="1.1" viewBox="0 0 512 512">
  <!-- Generator: Adobe Illustrator 29.5.1, SVG Export Plug-In . SVG Version: 2.1.0 Build 141)  -->
  <defs>
    <style>
      .st0 {
        fill: #8e8d8d;
      }
    </style>
  </defs>
  <g id="g2">
    <polygon id="polygon1" class="st0" points="335.8 379.05 364.82 379.05 177.57 131.42 146.4 131.42 335.8 379.05"/>
    <path class="st0" d="M510.46,150.44c-1.81-39.57-12.84-78.89-41.43-107.48S401,3.33,361.56,1.54c-27.31-1.24-36.03-1.54-105.56-1.54s-78.25.3-105.56,1.54c-39.57,1.81-78.87,12.82-107.48,41.43C14.25,71.68,3.35,110.89,1.54,150.44c-1.24,27.31-1.54,36.03-1.54,105.56s.3,78.25,1.54,105.56c1.81,39.53,12.86,78.93,41.43,107.48,28.69,28.69,67.97,39.62,107.48,41.43,27.31,1.24,36.03,1.54,105.56,1.54s78.25-.3,105.56-1.54c39.55-1.81,78.89-12.84,107.48-41.43s39.62-67.93,41.43-107.48c1.24-27.31,1.54-36.03,1.54-105.56s-.3-78.25-1.54-105.56h-.02ZM321.34,410.26v.02l-82.56-107.84-94.34,107.84h-52.44l122.3-139.82L85.33,101.72h107.99l74.54,98.58,86.25-98.58h52.37l-114.37,130.69,134.55,177.86h-105.32Z"/>
  </g>
</svg>