<?xml version="1.0" encoding="UTF-8" standalone="no"?>
<!-- Generator: Adobe Illustrator 26.0.1, SVG Export Plug-In . SVG Version: 6.00 Build 0)  -->

<svg
   version="1.1"
   id="Capa_1"
   x="0px"
   y="0px"
   viewBox="0 0 24 24"
   xml:space="preserve"
   width="512"
   height="512"
   xmlns="http://www.w3.org/2000/svg"
   xmlns:svg="http://www.w3.org/2000/svg"><defs
   id="defs2" />
<g
   id="g2">
	<path
   d="m 12,2.162 c 3.204,0 3.584,0.012 4.849,0.07 1.308,0.06 2.655,0.358 3.608,1.311 0.962,0.962 1.251,2.296 1.311,3.608 0.058,1.265 0.07,1.645 0.07,4.849 0,3.204 -0.012,3.584 -0.07,4.849 -0.059,1.301 -0.364,2.661 -1.311,3.608 -0.962,0.962 -2.295,1.251 -3.608,1.311 -1.265,0.058 -1.645,0.07 -4.849,0.07 -3.204,0 -3.584,-0.012 -4.849,-0.07 C 5.86,21.709 4.482,21.397 3.543,20.457 2.586,19.5 2.292,18.153 2.232,16.849 2.174,15.584 2.162,15.204 2.162,12 2.162,8.796 2.174,8.416 2.232,7.151 2.291,5.855 2.599,4.487 3.543,3.543 4.503,2.583 5.842,2.292 7.151,2.232 8.416,2.174 8.796,2.162 12,2.162 M 12,0 C 8.741,0 8.332,0.014 7.052,0.072 5.197,0.157 3.355,0.673 2.014,2.014 0.668,3.36 0.157,5.198 0.072,7.052 0.014,8.332 0,8.741 0,12 c 0,3.259 0.014,3.668 0.072,4.948 0.085,1.853 0.603,3.7 1.942,5.038 1.345,1.345 3.186,1.857 5.038,1.942 C 8.332,23.986 8.741,24 12,24 c 3.259,0 3.668,-0.014 4.948,-0.072 1.854,-0.085 3.698,-0.602 5.038,-1.942 1.347,-1.347 1.857,-3.184 1.942,-5.038 C 23.986,15.668 24,15.259 24,12 24,8.741 23.986,8.332 23.928,7.052 23.843,5.197 23.326,3.354 21.986,2.014 20.643,0.671 18.797,0.156 16.948,0.072 15.668,0.014 15.259,0 12,0 Z"
   id="path1" />
	
	
<polygon
   points="15.737,17.764 17.097,17.764 8.322,6.159 6.861,6.159 "
   id="polygon1"
   transform="scale(1.0002167)" /><path
   d="m 0,11.630769 v 0.829255 a 11.539975,11.539975 45 0 0 11.539975,11.539975 l 0.859521,0 A 11.600504,11.600504 135 0 0 24,12.399495 V 11.297857 A 11.297857,11.297857 45 0 0 12.702143,0 H 11.630769 A 11.630769,11.630769 135 0 0 0,11.630769 Z M 15.063,19.232 11.193001,14.177002 6.7709976,19.232 H 4.3130009 L 10.046002,12.677996 3.9999988,4.7679994 h 5.0620031 l 3.4939991,4.6209943 4.042997,-4.6209943 h 2.455 L 13.692999,10.893993 20,19.230997 h -4.937 z"
   id="path1-7"
   style="stroke-width:1" /></g>















</svg>
