<?xml version="1.0" encoding="UTF-8"?>
<svg id="Layer_1" xmlns="http://www.w3.org/2000/svg" version="1.1" viewBox="0 0 24 24">
  <!-- Generator: Adobe Illustrator 29.5.0, SVG Export Plug-In . SVG Version: 2.1.0 Build 137)  -->
  <path d="M19.5,0H4.5C2.02,0,0,2.02,0,4.5v15.13c.03-.23.19.03.48.03.22,0,.25.07.33.22.03.01.16-.39.19-.37V4.5c0-1.93,1.57-3.5,3.5-3.5h15.12"/>
  <path d="M19.5,0v1c1.93,0,3.5,1.57,3.5,3.5v15c0,.79-.27,1.51-.72,2.1l-12.52-12.57c-1.32-1.32-3.63-1.32-4.95,0l-3.81,3.81v1.41l4.52-4.52c.94-.94,2.59-.94,3.54,0l12.52,12.57c-.58.43-1.3.7-2.08.7H4.5c-1.93,0-3.5-1.57-3.5-3.5H0c0,2.48,2.02,4.5,4.5,4.5h15c2.48,0,4.5-2.02,4.5-4.5V4.5c0-2.48-2.02-4.5-4.5-4.5Z"/>
  <path d="M17.5,4c-1.38,0-2.5,1.12-2.5,2.5s1.12,2.5,2.5,2.5,2.5-1.12,2.5-2.5-1.12-2.5-2.5-2.5ZM17.5,8c-.83,0-1.5-.67-1.5-1.5s.67-1.5,1.5-1.5,1.5.67,1.5,1.5-.67,1.5-1.5,1.5Z"/>
</svg>