<?xml version="1.0" encoding="UTF-8"?>
<svg id="Layer_1" xmlns="http://www.w3.org/2000/svg" version="1.1" viewBox="0 0 512 512">
  <!-- Generator: Adobe Illustrator 29.5.0, SVG Export Plug-In . SVG Version: 2.1.0 Build 137)  -->
  <path d="M53.33,83.79c0-5.97,4.69-10.67,10.67-10.67h384c5.97,0,10.67,4.69,10.67,10.67s-4.69,10.67-10.67,10.67H64c-5.97,0-10.67-4.69-10.67-10.67ZM448,414.45H64c-5.97,0-10.67,4.69-10.67,10.67s4.69,10.67,10.67,10.67h384c5.97,0,10.67-4.69,10.67-10.67s-4.69-10.67-10.67-10.67ZM448,243.79H64c-5.97,0-10.67,4.69-10.67,10.67s4.69,10.67,10.67,10.67h384c5.97,0,10.67-4.69,10.67-10.67s-4.69-10.67-10.67-10.67h0Z"/>
</svg>