<?xml version="1.0" encoding="UTF-8"?>
<svg id="Layer_1" xmlns="http://www.w3.org/2000/svg" version="1.1" viewBox="0 0 512 512">
  <!-- Generator: Adobe Illustrator 29.5.1, SVG Export Plug-In . SVG Version: 2.1.0 Build 141)  -->
  <defs>
    <style>
      .st0 {
        fill: #f2f3ee;
      }
    </style>
  </defs>
  <path class="st0" d="M120.32,124.74c-4.07-4.25-3.97-11.01.3-15.08L218.43,15.49c19.84-19.86,55.15-20.01,75.26.15l97.69,94.02c4.25,4.07,4.37,10.84.3,15.08-2.09,2.18-4.89,3.26-7.68,3.26s-5.33-.98-7.4-2.99l-97.83-94.17c-3.48-3.48-7.66-5.97-12.1-7.49v307.31c0,5.89-4.78,10.67-10.67,10.67s-10.67-4.78-10.67-10.67V23.34c-4.44,1.49-8.55,3.95-11.97,7.36l-97.96,94.31c-4.22,4.07-11.01,3.97-15.08-.3v.02ZM457.32,134.83c-2.86-5.14-9.34-7.02-14.51-4.14-5.16,2.86-7.02,9.34-4.14,14.51,6.1,10.99,9.32,23.49,9.32,36.16v234.67c0,41.17-33.49,74.67-74.67,74.67h-234.67c-41.17,0-74.67-33.49-74.67-74.67v-234.69c0-13.12,3.46-26.03,9.98-37.33,2.97-5.1,1.22-11.63-3.88-14.57-5.14-2.99-11.65-1.22-14.57,3.88-8.41,14.55-12.86,31.13-12.86,48v234.67c0,52.93,43.07,96,96,96h234.67c52.93,0,96-43.07,96-96v-234.65c0-16.3-4.16-32.38-12.01-46.53v.02Z"/>
</svg>