<?xml version="1.0" encoding="UTF-8"?>
<svg id="Capa_1" xmlns="http://www.w3.org/2000/svg" version="1.1" viewBox="0 0 512 512">
  <!-- Generator: Adobe Illustrator 29.5.1, SVG Export Plug-In . SVG Version: 2.1.0 Build 141)  -->
  <defs>
    <style>
      .st0 {
        fill: #f2f3ee;
      }
    </style>
  </defs>
  <path class="st0" d="M448,85.33h-66.13C371.66,35.7,328,.06,277.33,0h-42.67c-50.67.06-94.33,35.7-104.53,85.33H64c-11.78,0-21.33,9.55-21.33,21.33s9.55,21.33,21.33,21.33h21.33v277.33c.07,58.88,47.79,106.6,106.67,106.67h128c58.88-.07,106.6-47.79,106.67-106.67V128h21.33c11.78,0,21.33-9.55,21.33-21.33s-9.55-21.33-21.33-21.33h0ZM174.32,85.33c9.07-25.55,33.24-42.63,60.35-42.67h42.67c27.11.03,51.28,17.12,60.35,42.67h-163.37Z"/>
</svg>